<?xml version="1.0" encoding="UTF-8"?><svg id="a" xmlns="http://www.w3.org/2000/svg" viewBox="0 0 164.1 153.22"><defs><style>.b{stroke-width:.25px;}.b,.c,.d{stroke:#fff;stroke-miterlimit:10;}.b,.e,.d{fill:#fff;}.c{fill:none;}.f{fill:orange;}.f,.e{stroke-width:0px;}</style></defs><circle class="f" cx="79.61" cy="76.61" r="76.61"/><path class="c" d="M119.96,75.46c0,9.51-3.29,18.25-8.79,25.15-7.4,9.27-18.78,15.21-31.55,15.22h-.04c-12.76,0-24.13-5.92-31.53-15.17-5.53-6.9-8.84-15.67-8.84-25.2,0-3.07.34-6.06.99-8.94,2.74-12.1,10.91-22.14,21.81-27.42,5.31-2.57,11.28-4.01,17.57-4.01s12.19,1.42,17.47,3.97c10.89,5.23,19.07,15.2,21.87,27.23.68,2.95,1.04,6.02,1.04,9.17Z"/><path class="c" d="M61.95,38.92c-.94-2.23-2.57-8.89,7.52-13.4s10.02-8.55,10.02-8.55h0s.06,3.63,9.85,8.75,9.36,7.33,7.67,13.54"/><path class="c" d="M40.02,66.46c-2.33-.66-8.55-3.54-5.79-14.23s-.44-13.17-.44-13.17h0s2.87,2.22,12.98-2.24c10.06-4.44,11.57-2.75,15.36,2.45"/><path class="c" d="M47.88,100.78c-1.97,1.41-8.1,4.48-14.74-4.35-6.86-9.11-10.57-7.87-10.57-7.87h0s3.53-.87,6.34-11.55c2.81-10.64,5.07-10.76,11.49-10.48"/><path class="c" d="M79.61,116.04c-.12,2.42-1.55,9.12-12.59,8.81-11.4-.32-12.74,3.35-12.74,3.35h0s1.52-3.3-5.07-12.16c-6.56-8.83-5.25-10.67-1.03-15.52"/><path class="c" d="M111.32,100.75c1.82,1.61,6.17,6.9-.96,15.34-7.36,8.71-5.32,12.05-5.32,12.05h0s-1.63-3.24-12.67-3.62c-10.99-.37-11.62-2.55-12.78-8.88"/><path class="c" d="M119.15,66.42c2.39-.42,9.24-.52,11.39,10.32s6.1,11.68,6.1,11.68h0s-3.55-.75-10.73,7.65c-7.15,8.36-9.24,7.49-14.91,4.45"/><path class="c" d="M96.93,38.84c1.16-2.13,5.36-7.54,15.17-2.47s12.93,2.51,12.93,2.51h0s-2.8,2.31-.71,13.16c2.08,10.8.09,11.89-5.82,14.43"/><path class="c" d="M99.79,32.59c.22-1.29-.5-2.58-1.37-3.56s-2-1.68-3.11-2.36c-1.12-.69-2.24-1.37-3.36-2.06-.42-.26-.84-.52-1.16-.89s-.55-.72-.43-1.19v-.16c.36-1.6,1.31-3.16,2.72-3.99,1.42-.84,2.57-1.18,4.07-1.34,2.12-.22,4.52-.31,6.63-.66s4.18-1.05,5.91-2.3c-.27,2.04.27,4.18,1.33,5.93.93,1.53,1.45,1.7,2.9,3.8,1.01,1.47,2.47,3.28,2.57,5.06.14,2.32-1.37,4.38-3.37,5.57-1.76-.87-3.4-1.63-5.25-2.29-1.21-.43-2.46-.82-3.75-.86-1.54-.05-3.09.41-4.34,1.3"/><circle class="b" cx="104.51" cy="24.32" r="1.94"/><path class="c" d="M58.66,32.94c-.87-.98-2.33-1.22-3.64-1.15s-2.56.51-3.79.96c-1.23.45-2.47.89-3.7,1.34-.46.17-.93.33-1.42.35s-.9-.02-1.2-.41l-.13-.1c-1.03-1.28-1.65-2.99-1.42-4.61.23-1.64.68-2.75,1.49-4.02,1.15-1.8,2.58-3.73,3.61-5.59s1.78-3.92,1.89-6.05c1.42,1.48,3.43,2.4,5.47,2.66,1.77.23,2.23-.08,4.78.1,1.78.12,4.1.12,5.56,1.14,1.9,1.34,2.57,3.8,2.26,6.11-1.78.84-3.4,1.64-5.06,2.68-1.09.68-2.17,1.42-3.01,2.4-1,1.17-1.6,2.67-1.69,4.21"/><circle class="e" cx="55.14" cy="24.09" r="1.94"/><path class="c" d="M33.3,65.31c-1.31.07-2.41,1.07-3.17,2.13s-1.19,2.32-1.61,3.56c-.42,1.24-.84,2.49-1.26,3.73-.16.46-.32.93-.61,1.33s-.58.69-1.07.68l-.16.03c-1.64,0-3.37-.57-4.49-1.77-1.13-1.2-1.73-2.24-2.21-3.67-.69-2.02-1.3-4.34-2.12-6.31s-1.96-3.84-3.56-5.25c2.04-.19,4.01-1.19,5.49-2.62,1.28-1.24,1.33-1.79,3.06-3.67,1.21-1.32,2.65-3.13,4.36-3.63,2.24-.65,4.57.36,6.18,2.04-.45,1.91-.83,3.68-1.06,5.63-.15,1.28-.25,2.58,0,3.85.29,1.51,1.09,2.92,2.24,3.94"/><circle class="d" cx="24.18" cy="62.55" r="1.94"/><path class="c" d="M42.79,105.32c-.76,1.06-.67,2.55-.31,3.8s1.07,2.38,1.78,3.48c.71,1.1,1.42,2.21,2.13,3.31.26.41.53.83.66,1.3s.18.88-.13,1.26l-.07.14c-1.01,1.28-2.55,2.28-4.18,2.41-1.65.14-2.83-.05-4.25-.56-2.01-.72-4.21-1.69-6.26-2.28s-4.22-.86-6.32-.49c1.13-1.72,1.57-3.88,1.37-5.92-.17-1.78-.57-2.16-.96-4.68-.28-1.76-.8-4.02-.12-5.68.88-2.16,3.13-3.35,5.45-3.56,1.21,1.55,2.36,2.95,3.74,4.34.91.91,1.86,1.8,3.01,2.4,1.36.71,2.96.97,4.48.71"/><circle class="b" cx="34.95" cy="110.73" r="1.94"/><path class="c" d="M80,122.85c.36,1.26,1.58,2.11,2.78,2.62s2.53.65,3.83.78c1.31.13,2.61.26,3.92.4.49.05.98.1,1.43.3s.8.41.9.89l.07.15c.37,1.59.19,3.41-.72,4.77-.92,1.37-1.8,2.18-3.09,2.97-1.81,1.12-3.94,2.24-5.68,3.47s-3.31,2.76-4.33,4.64c-.64-1.95-2.05-3.65-3.77-4.77-1.5-.97-2.04-.9-4.26-2.17-1.55-.88-3.64-1.88-4.51-3.44-1.14-2.03-.67-4.54.62-6.48,1.97.02,3.77,0,5.73-.22,1.28-.14,2.57-.33,3.75-.85,1.41-.62,2.6-1.71,3.35-3.06"/><circle class="b" cx="79.34" cy="132.35" r="1.94"/><path class="c" d="M116.89,104.69c1.21.5,2.63.08,3.78-.54s2.08-1.57,2.99-2.51c.92-.94,1.84-1.88,2.75-2.82.34-.35.69-.7,1.12-.93s.82-.37,1.26-.15l.16.04c1.48.7,2.79,1.98,3.28,3.54.5,1.57.58,2.77.4,4.27-.26,2.12-.71,4.48-.83,6.61-.12,2.13.1,4.31.93,6.27-1.92-.72-4.13-.67-6.08-.02-1.69.56-1.98,1.03-4.35,1.98-1.66.66-3.74,1.67-5.51,1.38-2.3-.38-3.97-2.31-4.68-4.52,1.24-1.53,2.35-2.95,3.4-4.61.69-1.09,1.34-2.22,1.67-3.46.39-1.49.28-3.1-.3-4.52"/><circle class="b" cx="123.91" cy="111.13" r="1.94"/><path class="c" d="M125.7,64.52c1.15-.63,1.7-2,1.93-3.29s.07-2.61-.09-3.9c-.16-1.3-.32-2.61-.48-3.91-.06-.48-.12-.98-.03-1.46s.22-.88.67-1.08l.13-.1c1.47-.72,3.29-.95,4.81-.36,1.54.59,2.53,1.27,3.59,2.35,1.49,1.52,3.06,3.35,4.65,4.77s3.43,2.61,5.48,3.18c-1.76,1.06-3.1,2.81-3.81,4.74-.62,1.68-.42,2.19-1.16,4.64-.52,1.71-1.03,3.97-2.35,5.17-1.73,1.56-4.27,1.66-6.45.84-.42-1.92-.85-3.68-1.49-5.53-.42-1.22-.9-2.43-1.67-3.47-.92-1.23-2.25-2.15-3.73-2.58"/><circle class="b" cx="135.11" cy="63.04" r="1.94"/><circle class="b" cx="79.59" cy="28.64" r="1.94"/><circle class="e" cx="42.98" cy="46.27" r="1.94"/><circle class="b" cx="34.33" cy="85.87" r="1.94"/><circle class="b" cx="59.65" cy="117.64" r="1.94"/><circle class="b" cx="100.4" cy="117.68" r="1.94"/><circle class="b" cx="125.24" cy="85.87" r="1.94"/><circle class="b" cx="116.19" cy="46.26" r="1.94"/><path class="e" d="M73.61,76.89c1.48.57,3.49,1.81,4.43,2.41.39.25.85.35,1.3.31,3.55-.34,4.33-2.93,4.33-2.93,3.73-10.26,7.66-10.21,7.66-10.21,16.6-3.34,15.83,14.71,15.83,14.71,0,0-.26,12.51-11.87,15.32s-12.13-9.06-12.13-9.06c5.23,7.91,14.78,3.83,14.78,3.83,12.23-9.57,3.09-17.74,3.09-17.74-7.91-6.13-10.93,3.16-10.93,3.16-3.9,7.63-10.52,5.39-10.52,5.39,2.68,15.45-9.83,15.12-9.83,15.12-15.96-3-16.6-17.29-16.6-17.29,1.66,5.36,7.15,8.3,7.15,8.3,11.87,6.26,15.06,0,15.06,0,2.43-10.98-7.66-7.66-7.66-7.66l-1.4-6.13c2.94-.13,4.85-.77,4.85-.77,5.74-3.06.64-6.13.64-6.13-7.53-1.91-11.36,4.98-11.36,4.98l-3.87-7.05s7.58-8.41,15.49-3.87c6.24,3.71,5.66,11.05,1.45,14.66-.23.2-.18.55.1.66Z"/><polygon class="e" points="76.39 54.62 80.35 58.83 83.8 54.62 80.1 50.54 76.39 54.62"/><path class="e" d="M91.97,62.55l-3.7-6.01s-5.36,10.6-15.7,0c0,0,4.34,15.12,19.4,6.67v-.65Z"/></svg>